<svg xmlns="http://www.w3.org/2000/svg" viewBox="0 0 21.527 21"><g transform="translate(0 -0.263)"><path d="M20.083,5.624a10.716,10.716,0,0,0-3.917-3.917,10.528,10.528,0,0,0-5.4-1.444,10.529,10.529,0,0,0-5.4,1.444A10.715,10.715,0,0,0,1.444,5.624,10.528,10.528,0,0,0,0,11.026a10.46,10.46,0,0,0,2.053,6.328,10.541,10.541,0,0,0,5.3,3.889.627.627,0,0,0,.561-.1.548.548,0,0,0,.182-.42q0-.042-.007-.757t-.007-1.247l-.322.056a4.112,4.112,0,0,1-.778.049,5.926,5.926,0,0,1-.974-.1,2.176,2.176,0,0,1-.939-.42,1.778,1.778,0,0,1-.617-.862l-.14-.322a3.5,3.5,0,0,0-.441-.715,1.691,1.691,0,0,0-.61-.532l-.1-.07a1.029,1.029,0,0,1-.182-.168.769.769,0,0,1-.126-.2q-.042-.1.07-.161a.909.909,0,0,1,.406-.063l.28.042a2.046,2.046,0,0,1,.694.336,2.262,2.262,0,0,1,.68.729,2.47,2.47,0,0,0,.778.876,1.65,1.65,0,0,0,.918.3,3.985,3.985,0,0,0,.8-.07,2.787,2.787,0,0,0,.631-.21A2.271,2.271,0,0,1,8.8,15.777a9.6,9.6,0,0,1-1.436-.252,5.72,5.72,0,0,1-1.317-.547,3.773,3.773,0,0,1-1.128-.939,4.512,4.512,0,0,1-.736-1.472,7,7,0,0,1-.287-2.1A4.088,4.088,0,0,1,5,7.578,3.767,3.767,0,0,1,5.1,4.72a1.964,1.964,0,0,1,1.205.189,8.426,8.426,0,0,1,1.17.54q.372.224.6.378a10.121,10.121,0,0,1,5.382,0l.533-.336a7.542,7.542,0,0,1,1.289-.617,1.837,1.837,0,0,1,1.136-.154,3.731,3.731,0,0,1,.112,2.859,4.088,4.088,0,0,1,1.107,2.887,7.076,7.076,0,0,1-.287,2.109,4.337,4.337,0,0,1-.742,1.472,3.918,3.918,0,0,1-1.135.932,5.73,5.73,0,0,1-1.317.547,9.586,9.586,0,0,1-1.436.253,2.5,2.5,0,0,1,.729,1.99v2.957a.558.558,0,0,0,.175.42.609.609,0,0,0,.553.1,10.54,10.54,0,0,0,5.3-3.889,10.462,10.462,0,0,0,2.053-6.328A10.537,10.537,0,0,0,20.083,5.624Z"/></g></svg>