<svg xmlns="http://www.w3.org/2000/svg" viewBox="0 0 16.346 17"><path d="M15.25,4.233A8.309,8.309,0,0,0,12.276,1.14,7.76,7.76,0,0,0,8.173,0a7.76,7.76,0,0,0-4.1,1.14A8.307,8.307,0,0,0,1.1,4.233,8.571,8.571,0,0,0,0,8.5a8.573,8.573,0,0,0,1.1,4.267A8.309,8.309,0,0,0,4.071,15.86,7.761,7.761,0,0,0,8.173,17a7.761,7.761,0,0,0,4.1-1.14,8.307,8.307,0,0,0,2.974-3.093,8.573,8.573,0,0,0,1.1-4.267A8.573,8.573,0,0,0,15.25,4.233ZM6.811,2.125a.352.352,0,0,1,.1-.254.325.325,0,0,1,.245-.1H9.2a.324.324,0,0,1,.245.1.352.352,0,0,1,.1.254V3.9a.352.352,0,0,1-.1.254.324.324,0,0,1-.245.1H7.152a.325.325,0,0,1-.245-.1.351.351,0,0,1-.1-.254ZM10.9,13.813a.352.352,0,0,1-.1.254.324.324,0,0,1-.245.1H5.789a.325.325,0,0,1-.245-.1.352.352,0,0,1-.1-.254V12.042a.352.352,0,0,1,.1-.255.326.326,0,0,1,.245-.1H6.811V8.146H5.789a.325.325,0,0,1-.245-.1.352.352,0,0,1-.1-.255V6.021a.352.352,0,0,1,.1-.255.325.325,0,0,1,.245-.1H9.2a.324.324,0,0,1,.245.1.353.353,0,0,1,.1.255v5.667h1.021a.325.325,0,0,1,.245.1.353.353,0,0,1,.1.255v1.771h0Z" transform="translate(0 0)"/></svg>