<svg xmlns="http://www.w3.org/2000/svg" xmlns:xlink="http://www.w3.org/1999/xlink" viewBox="0 0 19.394 19.394"><defs><style>.a{fill:#fff;stroke:#707070;}.b{clip-path:url(#a);}.c{fill:#ffc800;}</style><clipPath id="a"><rect class="a" width="19.394" height="19.394" transform="translate(1200 495)"/></clipPath></defs><g class="b" transform="translate(-1200 -495)"><g transform="translate(1200 495)"><path class="c" d="M18.963,16.853l-4-4a7.982,7.982,0,0,0,1.445-4.65,8.06,8.06,0,0,0-.647-3.188A8.035,8.035,0,0,0,11.393.647a8.178,8.178,0,0,0-6.375,0A8.035,8.035,0,0,0,.647,5.018a8.177,8.177,0,0,0,0,6.375,8.037,8.037,0,0,0,4.371,4.371,8.063,8.063,0,0,0,3.188.647,7.982,7.982,0,0,0,4.651-1.445l4,3.986a1.385,1.385,0,0,0,1.049.443,1.492,1.492,0,0,0,1.061-2.541Zm-7.069-4.959a5.028,5.028,0,0,1-3.689,1.533,5.029,5.029,0,0,1-3.689-1.533A5.028,5.028,0,0,1,2.984,8.205,5.029,5.029,0,0,1,4.517,4.517,5.028,5.028,0,0,1,8.205,2.984a5.03,5.03,0,0,1,3.689,1.533,5.028,5.028,0,0,1,1.533,3.689A5.028,5.028,0,0,1,11.894,11.894Z" transform="translate(0 0)"/></g></g></svg>