<svg xmlns="http://www.w3.org/2000/svg" viewBox="0 0 37.819 32.698"><defs><style>.a{fill:#cc9c00;}.b{fill:#a07a00;}.c{fill:#ffc963;}</style></defs><g transform="translate(0 0)"><g transform="translate(0 0)"><path class="a" d="M35.515,24.651,7.16,25.162,8.437,6.405A6.405,6.405,0,0,1,14.848,0H27.836a6.405,6.405,0,0,1,6.4,6.405Z" transform="translate(-2.046 0)"/><path class="b" d="M37.166,16.826H32.019c-1.035,0-.723.881-.723,1.916v4.215c0,1.627-2.469,2.682-4.1,2.682H10.613c-1.627,0-4.1-1.055-4.1-2.682V18.742c0-1.035.31-1.916-.723-1.916H.637c-1.035,0-.511.754-.511,1.788v1.66c0,6.333,3.473,11.5,9.806,11.5H27.876c6.333,0,9.807-5.163,9.807-11.5v-1.66C37.677,17.579,38.2,16.826,37.166,16.826Z" transform="translate(0.007 -4.82)"/><path class="c" d="M14.079,43.281l2.451-5.513H13.976l-.649,5.3a.395.395,0,0,0,.392.443h0a.393.393,0,0,0,.36-.235Z" transform="translate(-3.812 -10.818)"/><path class="c" d="M37.9,43.281l-2.455-5.513H38l.648,5.3a.395.395,0,0,1-.391.443h0a.4.4,0,0,1-.356-.235Z" transform="translate(-10.147 -10.818)"/></g></g></svg>