<svg xmlns="http://www.w3.org/2000/svg" xmlns:xlink="http://www.w3.org/1999/xlink" viewBox="0 0 17 19"><defs><style>.a{fill:#fff;stroke:#707070;}.b{clip-path:url(#a);}.c{fill:#cc9c00;}</style><clipPath id="a"><rect class="a" width="17" height="19" transform="translate(868 413)"/></clipPath></defs><g class="b" transform="translate(-868 -413)"><g transform="translate(868 414)"><path class="c" d="M16.554,2.267a1.461,1.461,0,0,0-1.072-.446H1.518a1.462,1.462,0,0,0-1.072.446A1.461,1.461,0,0,0,0,3.339V13.661a1.461,1.461,0,0,0,.446,1.072,1.461,1.461,0,0,0,1.072.446H15.482A1.522,1.522,0,0,0,17,13.661V3.339A1.461,1.461,0,0,0,16.554,2.267Zm-.769,11.393a.308.308,0,0,1-.3.3H1.518a.307.307,0,0,1-.3-.3V6.375A5.553,5.553,0,0,0,1.869,7Q4.411,8.955,5.91,10.207q.484.408.787.636a4.373,4.373,0,0,0,.821.46,2.377,2.377,0,0,0,.972.232h.019a2.376,2.376,0,0,0,.972-.232,4.367,4.367,0,0,0,.821-.46q.3-.228.787-.636Q12.589,8.955,15.131,7a5.526,5.526,0,0,0,.654-.626v7.286Zm0-10.075v.1a2.369,2.369,0,0,1-.441,1.247,4.462,4.462,0,0,1-.953,1.1q-1.831,1.442-3.8,3.007l-.332.28q-.275.233-.436.356t-.422.3a2.531,2.531,0,0,1-.479.261,1.127,1.127,0,0,1-.408.085H8.49a1.127,1.127,0,0,1-.408-.085A2.527,2.527,0,0,1,7.6,9.975q-.261-.175-.422-.3T6.745,9.32l-.332-.28Q4.44,7.475,2.609,6.033A3.32,3.32,0,0,1,1.214,3.339a.308.308,0,0,1,.3-.3H15.482a.165.165,0,0,0,.133.024c.038-.013.066.011.085.071s.036.089.052.085.025.036.029.119,0,.124,0,.124v.128Z"/></g></g></svg>